<?xml version="1.0" standalone="no"?>
<!DOCTYPE svg PUBLIC "-//W3C//DTD SVG 20010904//EN"
 "http://www.w3.org/TR/2001/REC-SVG-20010904/DTD/svg10.dtd">
<svg version="1.0" xmlns="http://www.w3.org/2000/svg"
 width="320.000000pt" height="320.000000pt" viewBox="0 0 320.000000 320.000000"
 preserveAspectRatio="xMidYMid meet">
<defs>
<clipPath id="blob">

<!-- <g transform="translate(0.000000,320.000000) scale(0.100000,-0.100000)" fill="#000000" stroke="none"> -->
<path d="M989 2727 c-158 -67 -257 -188 -429 -529 -193 -382 -218 -486 -128
-535 30 -16 63 -18 330 -18 286 0 297 -1 325 -21 22 -17 29 -30 31 -65 2 -37
-8 -66 -69 -189 -133 -272 -160 -359 -161 -515 -2 -324 139 -370 447 -147 44
32 121 88 171 124 137 100 163 111 259 109 45 -1 95 -5 112 -10 26 -8 30 -6
40 18 6 14 13 37 16 51 3 14 13 50 22 80 10 30 19 70 22 88 3 17 9 32 13 32 4
0 10 15 13 33 3 17 12 57 22 87 9 30 19 66 22 80 2 14 8 34 13 45 4 11 16 47
25 80 26 92 37 128 46 150 12 33 51 178 56 213 3 17 9 32 14 32 5 0 9 9 9 21
0 20 22 101 40 146 8 18 5 22 -13 25 -33 6 -104 -17 -140 -45 -39 -30 -67 -84
-103 -202 -15 -49 -34 -106 -42 -125 -77 -188 -125 -243 -202 -231 -102 17
-203 300 -245 688 -21 190 -28 223 -72 312 -71 144 -185 229 -317 237 -59 4
-80 1 -127 -19z"/>
<!-- </g> -->
</clipPath>
</defs>
</svg>
